<svg width="29" height="45" viewBox="0 0 29 45" fill="none" xmlns="http://www.w3.org/2000/svg">
<g clip-path="url(#clip0_202_2646)">
<path d="M28.2614 22.1544C24.9212 19.7112 21.6238 17.2014 18.2836 14.7582C17.5313 14.2085 17.1923 13.6427 17.202 12.6282C17.2332 8.98262 17.2468 5.33703 17.2527 1.69144C17.2546 0.759835 16.5258 0 15.6274 0H15.5533C15.0681 0 14.616 0.228355 14.2983 0.610293C14.2554 0.660814 14.2126 0.711335 14.1677 0.761856C9.71474 5.70482 5.30657 10.6922 0.861367 15.6433C0.268934 16.3021 0.0136416 16.975 0.0116928 17.8864C0.0116928 22.4717 0.00389759 27.055 0 31.6402C0.0233855 31.6362 0.0467711 31.6342 0.0701566 31.6301C0.0643102 34.8615 0.0604126 38.0948 0.0545662 41.3261L0.0506686 43.6743C0.0506686 44.3776 0.59828 44.9495 1.27841 44.9515C10.1201 44.9697 18.9637 44.9859 27.8054 45.002C28.4465 45.002 28.9649 44.4665 28.9669 43.8016L29 23.6276C29 23.0456 28.7291 22.5 28.2712 22.1645L28.2614 22.1565V22.1544ZM27.0765 31.6887V33.2185C27.0765 33.2185 27.0629 33.2226 27.0571 33.2226L27.0512 36.5266C27.0512 36.567 27.02 36.5994 26.981 36.5994C26.0067 36.5994 25.005 36.5933 24.0052 36.5953C23.1926 36.5953 22.3799 36.5711 21.5712 36.6196C20.9378 36.658 20.5247 37.0642 20.5481 37.7331C20.5715 38.3858 20.9632 38.7819 21.6219 38.7879C23.0192 38.8021 24.4145 38.8001 25.8118 38.8041C25.8157 38.8041 25.8196 38.8041 25.8235 38.8041C26.5016 38.8061 27.0512 39.378 27.0493 40.0813L27.0454 42.6296C27.0454 42.67 27.0142 42.7023 26.9752 42.7023L2.25281 42.6578C2.21383 42.6578 2.18265 42.6235 2.18265 42.5831C2.18265 42.3628 2.18265 42.1526 2.18265 41.9465H2.15926V19.0201H2.17291C2.17291 18.816 2.17291 18.6119 2.17291 18.4078C2.17291 17.9228 2.3444 17.3206 2.64841 16.975C6.58303 12.4948 10.5566 8.05101 14.5224 3.59911C14.6121 3.50009 14.7134 3.41117 14.8771 3.26163C14.9219 3.21919 14.994 3.25153 14.994 3.31417L14.9667 20.1599C14.9667 20.2003 14.9356 20.2326 14.8966 20.2326C13.5889 20.2306 12.291 20.2266 10.9931 20.2266C10.2136 20.2266 9.43216 20.2003 8.65459 20.2488C7.98421 20.2912 7.55547 20.6671 7.59055 21.4189C7.62173 22.1282 8.05826 22.4192 8.69357 22.4273C10.3832 22.4454 12.0708 22.4495 13.7604 22.4576C14.1249 22.4576 14.4893 22.4576 14.918 22.4596C14.957 22.4596 14.9901 22.4919 14.9901 22.5323L14.9804 28.0229C14.9804 28.0634 14.9492 28.0957 14.9102 28.0957C14.0586 28.0957 13.207 28.0937 12.3554 28.0917C11.2192 28.0896 10.0811 28.0896 8.94496 28.0795C8.58249 28.0775 8.27263 28.1442 8.05826 28.318C7.61978 28.4776 7.37618 28.8616 7.47557 29.3547C7.55742 29.7649 8.1518 30.3368 8.54156 30.359C10.4183 30.4742 12.3047 30.4277 14.1892 30.4378C14.423 30.4378 14.6588 30.4378 14.9219 30.4378C14.9609 30.4378 14.994 30.4702 14.994 30.5106V30.6399C15.0349 30.644 15.0759 30.648 15.1168 30.6521L15.1109 34.6452C15.1109 34.6856 15.0798 34.718 15.0408 34.718C13.2654 34.7139 11.5096 34.7099 9.75566 34.7099C9.39903 34.7099 8.97225 34.5967 8.70136 34.7564C8.31161 34.9847 7.78543 35.4152 7.77958 35.7668C7.77569 36.1326 8.25509 36.6661 8.64095 36.8358C9.08528 37.0318 9.66212 36.9187 10.1805 36.9207C11.7766 36.9288 13.3746 36.9288 15.1129 36.9308C15.1519 36.9308 15.185 36.9652 15.185 37.0056C15.185 37.4784 15.1792 37.8806 15.185 38.2807C15.1947 39.3437 15.5611 39.8691 16.2997 39.8287C16.7811 39.8024 17.0403 39.6064 17.1786 39.3154L17.204 23.4579C17.2078 21.526 17.2098 19.594 17.2156 17.6621C17.2156 17.454 17.2351 17.2478 17.2527 16.969C17.2566 16.9184 17.3033 16.8861 17.3501 16.9023C17.5275 16.9669 17.6775 17.0053 17.7925 17.0902C20.6942 19.2465 23.5979 21.4007 26.4763 23.5913C26.7667 23.8135 27.0687 24.2682 27.0707 24.6158C27.0746 25.7576 27.0746 26.8973 27.0746 28.0391C27.0746 28.0795 27.0434 28.1119 27.0044 28.1119C25.5214 28.1098 24.0481 28.1058 22.5748 28.1038C22.2825 28.1038 21.9902 28.1038 21.6979 28.1078C21.0236 28.1199 20.6592 28.5221 20.6455 29.1748C20.6299 29.9124 21.1093 30.2762 21.77 30.2923C23.1984 30.3267 24.6269 30.3085 26.0573 30.3126C26.3594 30.3126 26.6634 30.3126 27.0064 30.3126C27.0454 30.3126 27.0804 30.3469 27.0804 30.3873C27.0804 30.8157 27.0804 31.2442 27.0804 31.6726L27.0765 31.6887Z" fill="black"/>
</g>
<defs>
<clipPath id="clip0_202_2646">
<rect width="29" height="45" fill="white"/>
</clipPath>
</defs>
</svg>
