<svg width="26" height="24" viewBox="0 0 26 24" fill="none" xmlns="http://www.w3.org/2000/svg">
<g clip-path="url(#clip0_193_2321)">
<path d="M12.6973 6.89758C16.2203 6.89758 19.7456 6.89758 23.2687 6.90188C23.491 6.90188 23.5674 6.85037 23.5586 6.61859C23.539 6.07562 23.5717 5.53051 23.5455 4.98969C23.5107 4.27503 23.1815 3.72992 22.486 3.44663C22.3312 3.38439 22.1525 3.35649 21.9846 3.3522C21.4679 3.34147 20.949 3.34362 20.4323 3.3522C20.2819 3.35435 20.2187 3.30928 20.2209 3.15691C20.2274 2.71051 20.2165 2.26627 20.2318 1.81988C20.2318 1.75549 20.3342 1.63746 20.3909 1.63746C21.1256 1.64175 21.8756 1.57307 22.5907 1.69969C24.2018 1.98298 25.3158 3.39942 25.3202 5.07339C25.3289 8.52005 25.3202 11.9689 25.3202 15.4155C25.3202 17.0981 25.3289 18.7828 25.3245 20.4653C25.3202 21.65 24.8667 22.6286 23.8987 23.3583C23.3472 23.7725 22.7149 23.9914 22.0282 23.9914C15.8715 23.9978 9.71269 23.9871 3.55603 23.9978C1.73346 24.0021 0.218272 22.5685 0.133247 20.6392C0.117987 20.2743 0.133247 19.9095 0.133247 19.5446C0.133247 14.7159 0.133247 9.88712 0.133247 5.06051C0.133247 3.42088 1.26909 2.00659 2.90854 1.68896C3.40779 1.59239 3.93974 1.64175 4.45642 1.63746C4.70714 1.63531 5.03416 1.57093 5.1824 1.69755C5.30885 1.807 5.23037 2.14609 5.23473 2.3843C5.23909 2.62467 5.22819 2.86503 5.23909 3.1054C5.24781 3.29426 5.16932 3.3522 4.98401 3.34791C4.53927 3.33718 4.09452 3.34791 3.64978 3.34362C2.67963 3.33074 1.93403 4.02179 1.91004 4.97896C1.89478 5.53051 1.90132 6.08421 1.88388 6.63576C1.87734 6.84608 1.95365 6.90617 2.1673 6.90617C5.68165 6.89973 9.196 6.90188 12.7104 6.90188L12.6973 6.89758ZM23.5368 8.61877C23.3472 8.61877 23.1749 8.61877 23.0049 8.61877C16.2923 8.61877 9.5797 8.61877 2.86712 8.61877C2.60332 8.61877 2.33953 8.61877 2.07791 8.61448C1.92749 8.61018 1.8708 8.66169 1.87952 8.8205C1.89478 9.13169 1.88824 9.44288 1.88824 9.75621C1.88824 13.2844 1.88824 16.8126 1.8926 20.3408C1.8926 20.5962 1.8926 20.8666 1.97545 21.1049C2.21962 21.8217 2.72105 22.2938 3.78713 22.2917C9.83696 22.2788 15.8868 22.2874 21.9344 22.2831C22.0936 22.2831 22.2615 22.2552 22.4141 22.2058C23.1008 21.9805 23.5499 21.3452 23.5499 20.6091C23.5499 16.6967 23.5499 12.7865 23.5499 8.87416C23.5499 8.7969 23.5434 8.71749 23.5368 8.62091V8.61877Z" fill="white"/>
<path d="M12.754 1.6203C14.1057 1.6203 15.4595 1.6203 16.8112 1.6203C16.9747 1.6203 17.0663 1.65678 17.0641 1.84135C17.0576 2.25984 17.0597 2.67833 17.0663 3.09683C17.0685 3.28354 17.014 3.3608 16.8003 3.35865C14.1035 3.35007 11.4089 3.35007 8.71207 3.35865C8.44173 3.35865 8.37197 3.27495 8.38723 3.01957C8.41121 2.63756 8.40467 2.2534 8.38941 1.8714C8.38069 1.67395 8.46136 1.62674 8.64231 1.62888C10.0136 1.63318 11.3827 1.62888 12.754 1.62888C12.754 1.62674 12.754 1.62459 12.754 1.62245V1.6203Z" fill="white"/>
<path d="M7.68503 2.47661C7.68503 2.98309 7.68939 3.49172 7.68503 3.99821C7.67849 4.5519 7.32967 4.90601 6.80426 4.90601C6.30065 4.90601 5.94093 4.54976 5.93657 4.01323C5.93003 2.95519 5.92131 1.89501 5.94311 0.834833C5.95619 0.169537 6.63203 -0.199594 7.22938 0.105154C7.53242 0.259674 7.67413 0.519354 7.67849 0.845564C7.68503 1.38853 7.67849 1.9315 7.67849 2.47446C7.67849 2.47446 7.68285 2.47446 7.68503 2.47446V2.47661Z" fill="white"/>
<path d="M19.5123 2.48089C19.5123 2.98738 19.5145 3.49601 19.5123 4.00249C19.5079 4.55189 19.1613 4.906 18.6293 4.906C18.1279 4.906 17.7747 4.53902 17.7725 4.00464C17.7704 2.97235 17.7682 1.94007 17.7725 0.907792C17.7725 0.373409 18.1279 0.00213117 18.625 -0.00216105C19.1373 -0.00645328 19.5101 0.371263 19.5166 0.903499C19.5188 1.16962 19.5145 1.43788 19.5145 1.704C19.5145 1.96153 19.5145 2.21907 19.5145 2.47875L19.5123 2.48089Z" fill="white"/>
<path d="M6.55348 16.0916C7.044 16.0916 7.53235 16.0894 8.02288 16.0916C8.5352 16.0937 8.84478 16.3749 8.84914 16.8814C8.86004 17.8857 8.85568 18.8923 8.84696 19.8967C8.8426 20.3066 8.51994 20.6177 8.09482 20.6199C7.06144 20.6263 6.02589 20.6263 4.99251 20.6199C4.52596 20.6156 4.21639 20.2937 4.21421 19.8344C4.20985 18.8644 4.20985 17.8943 4.21421 16.9243C4.21421 16.3963 4.52378 16.0959 5.05791 16.0937C5.55716 16.0916 6.05641 16.0937 6.55348 16.0937V16.0916ZM6.55348 17.5681C6.34418 17.5703 6.13707 17.581 5.92996 17.5681C5.75773 17.5574 5.70977 17.6239 5.71413 17.7827C5.72067 18.1733 5.72067 18.5639 5.70759 18.9545C5.70105 19.1262 5.77735 19.1691 5.93432 19.1691C6.33328 19.1648 6.73007 19.1584 7.12903 19.1691C7.30998 19.1734 7.37102 19.109 7.36448 18.9352C7.35576 18.6691 7.36448 18.403 7.36448 18.1368C7.36448 17.7577 7.17626 17.5688 6.79983 17.5703C6.71916 17.5703 6.63632 17.5703 6.55566 17.5703L6.55348 17.5681Z" fill="white"/>
<path d="M15.0364 18.36C15.0364 18.8493 15.0364 19.3386 15.0364 19.8279C15.0364 20.3087 14.729 20.6199 14.2472 20.6199C13.2487 20.622 12.2524 20.6241 11.2539 20.6199C10.6958 20.6177 10.4102 20.328 10.4102 19.7721C10.4102 18.8193 10.4102 17.8685 10.4102 16.9157C10.4102 16.3834 10.7045 16.0937 11.2539 16.0937C12.2415 16.0894 13.2312 16.0937 14.2188 16.0958C14.7399 16.098 15.0342 16.3984 15.0342 16.9178C15.0342 17.3985 15.0342 17.8793 15.0342 18.36H15.0364ZM13.5582 19.1562C13.5582 18.6519 13.5626 18.1733 13.5495 17.6968C13.5495 17.6539 13.4318 17.5788 13.3686 17.5767C12.9435 17.5638 12.5162 17.5724 12.0888 17.5638C11.9493 17.5616 11.8905 17.6003 11.8905 17.7419C11.8948 18.1411 11.8948 18.5424 11.8839 18.9416C11.8796 19.109 11.9471 19.1605 12.1085 19.1583C12.5794 19.1519 13.0503 19.1583 13.5561 19.1583L13.5582 19.1562Z" fill="white"/>
<path d="M18.9083 14.9176C18.4178 14.9176 17.9273 14.9219 17.4367 14.9176C16.8743 14.9112 16.6236 14.6945 16.6127 14.1515C16.5909 13.1814 16.5974 12.2114 16.5952 11.2392C16.5952 10.7327 16.9004 10.3851 17.4869 10.3979C18.4309 10.4172 19.3749 10.3958 20.3189 10.3979C20.9576 10.3979 21.2105 10.6404 21.2192 11.2693C21.2323 12.205 21.2345 13.1407 21.228 14.0742C21.2236 14.6623 20.9555 14.9112 20.3537 14.9176C20.1096 14.9198 19.8632 14.9176 19.619 14.9176C19.3836 14.9176 19.146 14.9176 18.9105 14.9176H18.9083ZM18.106 11.8659V13.4669C18.6031 13.4669 19.0806 13.4733 19.558 13.4583C19.619 13.4583 19.7237 13.3467 19.7259 13.2823C19.7411 12.866 19.7368 12.4475 19.7259 12.0311C19.7259 11.9753 19.6452 11.8745 19.6016 11.8723C19.1067 11.8616 18.6118 11.8659 18.106 11.8659Z" fill="white"/>
<path d="M6.52082 14.922C6.0303 14.922 5.53977 14.9263 5.05142 14.922C4.49113 14.9155 4.22734 14.673 4.2208 14.1236C4.20772 13.145 4.20772 12.1642 4.21426 11.1856C4.21644 10.7006 4.52601 10.4087 5.01872 10.4065C6.0085 10.4001 6.99827 10.398 7.98586 10.4001C8.56578 10.4001 8.83829 10.6598 8.84483 11.2328C8.85355 12.2028 8.85137 13.1729 8.84265 14.1429C8.83829 14.6537 8.56578 14.9091 8.04691 14.9198C7.79183 14.9241 7.53894 14.9198 7.28387 14.9198C7.02879 14.9198 6.7759 14.9198 6.52082 14.9198C6.52082 14.9198 6.52082 14.922 6.52082 14.9241V14.922ZM5.71636 13.4497H7.36235C7.36235 12.9626 7.35799 12.5011 7.36235 12.0397C7.36235 11.8959 7.29913 11.8573 7.16396 11.8595C6.74756 11.8659 6.32897 11.8659 5.91257 11.8595C5.7556 11.8573 5.70982 11.9217 5.70982 12.0655C5.71636 12.5183 5.70982 12.9711 5.70982 13.4497H5.71636Z" fill="white"/>
<path d="M12.6908 14.9177C12.1829 14.9177 11.6749 14.9198 11.1669 14.9177C10.744 14.9155 10.4257 14.6472 10.4192 14.233C10.4039 13.1836 10.4039 12.1341 10.4192 11.0847C10.4257 10.6962 10.7636 10.4087 11.1495 10.4087C12.1371 10.4087 13.1269 10.4065 14.1145 10.4087C14.7881 10.4087 15.0345 10.6555 15.0345 11.31C15.0345 12.235 15.0345 13.16 15.0345 14.085C15.0345 14.6494 14.7641 14.9155 14.1864 14.9219C13.9335 14.9241 13.6784 14.9198 13.4255 14.9177C13.1814 14.9177 12.935 14.9177 12.6908 14.9177ZM13.5542 13.4776C13.5542 12.9518 13.5585 12.4646 13.5455 11.9775C13.5455 11.9367 13.4212 11.868 13.3536 11.8659C12.9372 11.8552 12.5208 11.8659 12.1022 11.8594C11.9714 11.8594 11.8995 11.8895 11.8995 12.0354C11.9016 12.4539 11.8907 12.8703 11.9016 13.2888C11.9016 13.3531 12.0041 13.469 12.0608 13.469C12.5404 13.4841 13.0179 13.4776 13.5542 13.4776Z" fill="white"/>
</g>
<defs>
<clipPath id="clip0_193_2321">
<rect width="25.2" height="24" fill="white" transform="translate(0.120117)"/>
</clipPath>
</defs>
</svg>
