<svg width="38" height="28" viewBox="0 0 38 28" fill="white" xmlns="http://www.w3.org/2000/svg">
<g clip-path="url(#clip0_199_2610)">
<path d="M9.54508 0H28.2371C33.4952 0 37.7778 4.24861 37.7778 9.46497V18.535C37.7778 23.7557 33.4952 28 28.2371 28H9.54508C4.28261 28 0.00439134 23.7514 0.00439134 18.535V9.46497C0.00439134 4.24427 4.28698 0 9.54508 0ZM2.55033 18.535C2.55033 22.3627 5.68681 25.4743 9.54508 25.4743H28.2371C32.0954 25.4743 35.2319 22.3627 35.2319 18.535V9.46497C35.2319 5.63732 32.0954 2.52573 28.2371 2.52573H9.54508C5.68681 2.52573 2.55033 5.63732 2.55033 9.46497V18.535Z" fill="black"/>
<path d="M18.6964 6.44885C22.8828 6.44885 26.2861 9.82951 26.2861 13.9826C26.2861 18.1358 22.8784 21.5121 18.6964 21.5121C14.5145 21.5121 11.1068 18.1314 11.1068 13.9826C11.1068 9.83385 14.5145 6.44885 18.6964 6.44885ZM18.6964 18.9386C21.4524 18.9386 23.6965 16.7123 23.6965 13.9783C23.6965 11.2443 21.4524 9.01798 18.6964 9.01798C15.9405 9.01798 13.6964 11.2443 13.6964 13.9783C13.6964 16.7123 15.9405 18.9386 18.6964 18.9386Z" fill="black"/>
<path d="M30.7219 8.96156C31.5137 8.96156 32.1567 9.5995 32.1567 10.385V17.615C32.1567 18.4005 31.5137 19.0384 30.7219 19.0384C29.9301 19.0384 29.2871 18.4005 29.2871 17.615V10.385C29.2871 9.5995 29.9301 8.96156 30.7219 8.96156Z" fill="black"/>
<path d="M7.0603 8.93986C7.85207 8.93986 8.49512 9.57781 8.49512 10.3633V17.5933C8.49512 18.3788 7.85207 19.0167 7.0603 19.0167C6.26852 19.0167 5.62547 18.3788 5.62547 17.5933V10.3633C5.62547 9.57781 6.26852 8.93986 7.0603 8.93986Z" fill="black"/>
</g>
<defs>
<clipPath id="clip0_199_2610">
<rect width="37.7778" height="28" fill="white" transform="matrix(-1 0 0 1 37.7778 0)"/>
</clipPath>
</defs>
</svg>
