<?xml version="1.0" encoding="UTF-8"?>
<svg id="Layer_2" data-name="Layer 2" xmlns="http://www.w3.org/2000/svg" viewBox="0 0 86.36 64.52">
  <defs>
    <style>
      .cls-1 {
        fill: #fff;
      }
    </style>
  </defs>
  <g id="Layer_1-2" data-name="Layer 1">
    <g>
      <path class="cls-1" d="m64.54,0H21.81C9.79,0,0,9.79,0,21.81v20.9c0,12.03,9.79,21.81,21.81,21.81h42.73c12.03,0,21.81-9.79,21.81-21.81v-20.9c0-12.03-9.79-21.81-21.81-21.81Zm15.99,42.71c0,8.82-7.17,15.99-15.99,15.99H21.81c-8.82,0-15.99-7.17-15.99-15.99v-20.9c0-8.82,7.17-15.99,15.99-15.99h42.73c8.82,0,15.99,7.17,15.99,15.99v20.9Z"/>
      <path class="cls-1" d="m43.62,14.86c-9.57,0-17.35,7.79-17.35,17.36s7.79,17.35,17.35,17.35,17.35-7.79,17.35-17.35-7.79-17.36-17.35-17.36Zm0,28.78c-6.3,0-11.43-5.13-11.43-11.43s5.13-11.43,11.43-11.43,11.43,5.13,11.43,11.43-5.13,11.43-11.43,11.43Z"/>
      <path class="cls-1" d="m16.13,20.65c-1.81,0-3.28,1.47-3.28,3.28v16.66c0,1.81,1.47,3.28,3.28,3.28s3.28-1.47,3.28-3.28v-16.66c0-1.81-1.47-3.28-3.28-3.28Z"/>
      <path class="cls-1" d="m70.22,20.6c-1.81,0-3.28,1.47-3.28,3.28v16.66c0,1.81,1.47,3.28,3.28,3.28s3.28-1.47,3.28-3.28v-16.66c0-1.81-1.47-3.28-3.28-3.28Z"/>
    </g>
  </g>
</svg>