<svg width="24" height="23" viewBox="0 0 24 23" fill="none" xmlns="http://www.w3.org/2000/svg">
<g clip-path="url(#clip0_195_2477)">
<path d="M23.6479 11.485C23.7176 17.7187 18.5548 22.9031 12.2279 22.9977C6.03337 23.0899 0.445325 18.233 0.463913 11.4666C0.482502 4.78081 5.97528 0 12.0722 0C18.5339 0 23.7083 5.31355 23.6456 11.485H23.6479ZM1.93702 11.455C1.84176 16.9969 6.50737 21.614 12.1674 21.5517C17.7578 21.4894 22.2213 17.0038 22.2027 11.425C22.1841 6.14379 17.9181 1.47137 12.035 1.45754C6.46322 1.4437 1.90217 5.98927 1.93934 11.4573L1.93702 11.455Z" fill="white"/>
<path d="M12.4927 11.2221C13.8892 11.2221 15.2415 11.2221 16.5937 11.2221C16.7657 11.2221 16.9423 11.2337 17.1119 11.2636C17.486 11.3305 17.7137 11.605 17.7114 11.9601C17.709 12.313 17.4744 12.5805 17.0956 12.6451C16.9446 12.6704 16.7889 12.6751 16.6332 12.6751C15.1369 12.6751 13.6382 12.6751 12.1419 12.6751C12.0164 12.6751 11.891 12.6727 11.7655 12.6612C11.338 12.6266 11.0917 12.396 11.0522 11.974C11.0313 11.7549 11.0382 11.5335 11.0382 11.3144C11.0382 9.19265 11.0382 7.06861 11.0429 4.94689C11.0429 4.57097 11.1939 4.34496 11.5122 4.23196C11.8305 4.11664 12.1163 4.21351 12.3231 4.45105C12.423 4.56636 12.4834 4.75547 12.4834 4.91229C12.4951 6.89103 12.4904 8.86978 12.4927 10.8508C12.4927 10.9638 12.4927 11.0768 12.4927 11.2198V11.2221Z" fill="white"/>
</g>
<defs>
<clipPath id="clip0_195_2477">
<rect width="23.184" height="23" fill="white" transform="translate(0.463867)"/>
</clipPath>
</defs>
</svg>
