<svg width="36" height="43" viewBox="0 0 36 43" fill="none" xmlns="http://www.w3.org/2000/svg">
<g clip-path="url(#clip0_202_2649)">
<path d="M35.9841 11.4944C35.9823 11.1396 35.7965 10.7028 35.5328 10.4336C34.5664 9.44943 33.5736 8.4617 32.6125 7.50607C31.9719 6.86957 31.3312 6.23307 30.6958 5.5948C30.0233 4.91908 29.3525 4.23979 28.6818 3.55872C27.6677 2.52999 26.6181 1.4656 25.5739 0.431516C25.3386 0.197956 24.9333 0.0339288 24.5669 0.0214485C23.744 -0.00529501 22.9104 5.36968e-05 22.1033 0.0036195C21.8131 0.0036195 21.5211 0.0071853 21.2308 0.0071853C19.8132 0.0071853 18.3938 0.0071853 16.9761 0.0071853C13.3038 0.0071853 9.50571 0.0036195 5.76961 0.0267972C4.1343 0.0374946 2.70959 0.706083 1.53088 2.01651C0.474299 3.18966 -0.0124024 4.65342 -1.36338e-05 6.61996C0.0194544 9.73826 0.0159148 12.91 0.0123751 15.9766C0.0123751 17.255 0.00883549 18.5333 0.0106053 19.8116C0.0106053 21.459 0.0106053 23.1082 0.00883549 24.7556C0.00706566 28.7547 0.00352601 32.8874 0.0212243 36.9542C0.0353829 40.3845 2.63525 42.9804 6.07048 42.9947C7.01026 42.9983 7.95181 42.9983 8.89335 42.9983C9.28626 42.9983 9.68093 42.9983 10.0738 42.9983H11.0632C17.3443 42.9983 23.6254 42.9965 29.9047 42.9947C31.4268 42.9947 32.7559 42.5133 33.8567 41.5648C35.2991 40.3221 35.9929 38.6747 35.9787 36.5263C35.9593 33.6773 35.9628 30.7801 35.9664 27.9773C35.9664 26.9094 35.9699 25.8414 35.9699 24.7717H36V22.0207C36 18.569 36.0018 15.0014 35.9841 11.4908V11.4944ZM23.5121 10.0913V10.972C23.5174 12.1808 23.9209 12.5891 25.1191 12.5891H26.0447C28.4499 12.5891 30.9383 12.5891 33.3842 12.5766C33.5682 12.5766 33.609 12.5998 33.6107 12.5998C33.6107 12.5998 33.639 12.6408 33.639 12.812C33.6249 22.2845 33.6249 29.5891 33.639 36.4925C33.6426 38.0222 33.186 39.0973 32.2037 39.8728C31.5489 40.3917 30.7383 40.6431 29.7277 40.6448C25.7916 40.6484 21.8573 40.6502 17.9212 40.652C16.9691 40.652 16.0151 40.652 15.063 40.652C12.1127 40.652 9.06326 40.6555 6.0634 40.6359C3.91307 40.6217 2.35208 39.0277 2.35208 36.8437V18.1785C2.35031 14.2543 2.34854 10.3302 2.35208 6.40602C2.35385 3.87073 3.85112 2.35705 6.35897 2.35527C7.5943 2.35527 8.82964 2.35527 10.0632 2.35527C10.7941 2.35527 11.5251 2.35527 12.2543 2.35527C15.8275 2.35527 19.5211 2.35527 23.1564 2.34635C23.4095 2.34635 23.4661 2.38201 23.4785 2.39449C23.4873 2.4034 23.5263 2.45511 23.5245 2.69758C23.4997 5.16333 23.505 7.66831 23.5121 10.0913ZM25.9155 4.42878V4.3539L31.5506 10.1769H31.2055C29.5136 10.1769 27.7632 10.1786 25.9934 10.1626C25.9668 10.1483 25.9297 10.1162 25.9067 10.0913C25.8961 8.20496 25.9067 6.28656 25.9155 4.43056V4.42878Z" fill="black"/>
<path d="M8.18891 20.3554C8.04201 20.3536 7.87565 20.35 7.70928 20.3999C7.09692 20.5818 6.77128 21.0293 6.81906 21.6266C6.86508 22.2203 7.22789 22.6107 7.8137 22.6981C8.02077 22.7284 8.2243 22.7284 8.41898 22.7284H8.5004C10.4596 22.7284 12.4188 22.7284 14.3762 22.7284H16.2168L22.8572 22.7248C24.5492 22.7248 26.2411 22.7248 27.9313 22.7195C28.7171 22.7177 29.2569 22.2577 29.2746 21.5767C29.2923 20.8938 28.7259 20.3786 27.9278 20.3536C27.8605 20.3518 27.795 20.3518 27.7295 20.3518H25.7615C19.9317 20.3536 14.1019 20.3554 8.27386 20.3572H8.18891V20.3554Z" fill="black"/>
<path d="M27.664 27.1286C25.3509 27.1286 23.0377 27.1286 20.7245 27.1286H17.753L16.9088 27.1304C16.0752 27.1304 15.2399 27.1304 14.4063 27.1304H12.8984C11.2985 27.1304 9.64367 27.1322 8.0172 27.1429C7.29688 27.1464 6.81372 27.6118 6.81372 28.2964C6.81372 28.9436 7.30927 29.4446 7.98888 29.4874C8.06499 29.4927 8.14109 29.4927 8.21542 29.4927C8.26321 29.4927 8.31099 29.4927 8.35878 29.4927L27.6534 29.4874C29.025 29.4874 29.2586 28.7778 29.2763 28.3553C29.2887 28.0415 29.1931 27.7669 28.9967 27.5601C28.7241 27.2748 28.2764 27.1304 27.664 27.1286Z" fill="black"/>
<path d="M7.72527 15.9373C7.84561 15.973 7.96596 15.9784 8.07923 15.9784C8.1164 15.9784 8.15356 15.9784 8.19073 15.9784C8.22436 15.9784 8.26152 15.9748 8.28807 15.9784C10.6862 15.9784 13.0825 15.9801 15.4806 15.9784H16.4894C18.0681 15.9784 19.645 15.9784 21.2237 15.9748C21.6733 15.9748 22.052 15.8215 22.2892 15.5487C22.5033 15.3008 22.5883 14.9781 22.5387 14.6126C22.452 13.9833 21.9688 13.6214 21.2131 13.6196C19.6433 13.6124 18.0717 13.6142 16.5018 13.616H15.0205L13.2524 13.6124C11.9693 13.6124 10.6862 13.6124 9.40483 13.6124H9.15705C8.73938 13.6124 8.31108 13.6124 7.88632 13.6356C7.2598 13.6731 6.86159 14.0778 6.82266 14.7214C6.78726 15.3169 7.11645 15.7608 7.72704 15.9373H7.72527Z" fill="black"/>
</g>
<defs>
<clipPath id="clip0_202_2649">
<rect width="36" height="43" fill="white"/>
</clipPath>
</defs>
</svg>
