<svg width="31" height="43" viewBox="0 0 31 43" fill="none" xmlns="http://www.w3.org/2000/svg">
<g clip-path="url(#clip0_199_2617)">
<path d="M15.4601 42.9999C16.66 42.9999 17.7737 42.3151 18.4357 41.1682C19.6629 39.0444 20.8901 36.9207 22.1173 34.797C24.2944 31.0284 26.4694 27.2599 28.6506 23.4934C30.1153 20.9643 30.9033 18.2608 30.9958 15.4564L31 15.3367L30.9832 15.2169C30.937 14.8955 30.8991 14.572 30.8592 14.2485C30.7709 13.5007 30.6785 12.7277 30.4936 11.9483C28.5939 3.89451 20.9742 -1.14491 12.7703 0.224705C5.6633 1.41156 0.176517 7.74288 0.00630229 14.9523C-0.0630442 17.9184 0.69977 20.8004 2.27793 23.5186C4.64202 27.5918 7.03552 31.7384 9.34917 35.7506C10.3894 37.553 11.4296 39.3553 12.4719 41.1577C13.138 42.3109 14.256 42.9999 15.4622 42.9999H15.4601ZM28.2619 15.4816C28.1673 17.8196 27.5201 19.9938 26.2865 22.1217C24.1053 25.8882 21.9282 29.6588 19.7512 33.4273C18.5239 35.5511 17.2988 37.6748 16.0716 39.7986C15.8993 40.0948 15.6765 40.267 15.4601 40.267C15.2394 40.267 15.0125 40.0927 14.836 39.7881C13.7958 37.9857 12.7556 36.1834 11.7154 34.381C9.39961 30.3688 7.0061 26.2201 4.63991 22.1448C3.29921 19.8362 2.6772 17.5024 2.73604 15.0132C2.87683 9.09149 7.38225 3.89031 13.22 2.91562C19.9865 1.78758 26.2697 5.94053 27.8353 12.5764C27.9845 13.2045 28.0622 13.8704 28.1463 14.572C28.182 14.8745 28.2198 15.1791 28.2598 15.4816H28.2619ZM15.4433 23.6195H15.4601C19.9802 23.6111 23.6556 19.9245 23.6535 15.4018C23.6535 13.2318 22.794 11.1816 21.239 9.63345C19.6839 8.08318 17.6308 7.23242 15.4559 7.23242H15.4349C10.9168 7.24293 7.24776 10.9274 7.25617 15.4459C7.26457 19.956 10.9357 23.6195 15.4433 23.6216V23.6195ZM15.4538 9.96115C16.9016 9.96115 18.2697 10.5304 19.3099 11.566C20.348 12.5995 20.9195 13.9629 20.9195 15.4039C20.9216 18.4225 18.4693 20.8824 15.4538 20.8887H15.4433C12.4403 20.8887 9.99431 18.4456 9.988 15.4396C9.9817 12.4273 12.4277 9.96955 15.4412 9.96325H15.4559L15.4538 9.96115Z" fill="black"/>
</g>
<defs>
<clipPath id="clip0_199_2617">
<rect width="31" height="43" fill="white" transform="matrix(-1 0 0 1 31 0)"/>
</clipPath>
</defs>
</svg>
