<svg width="30" height="37" viewBox="0 0 30 37" fill="none" xmlns="http://www.w3.org/2000/svg">
<path d="M15.0277 37C14.6671 37 14.303 36.8996 13.9806 36.6988C13.6217 36.4752 13.2504 36.2131 12.8122 35.8735L12.7485 35.8241C12.2618 35.447 11.7585 35.0572 11.2792 34.628L11.0776 34.4474C10.2753 33.7293 9.44545 32.9868 8.66642 32.1986C7.82764 31.3502 6.98969 30.4338 6.10485 29.3967C5.52022 28.7116 4.94036 27.9506 4.33165 27.0702C3.82689 26.3398 3.3323 25.5468 2.81986 24.6462C2.45327 24.002 2.15597 23.3547 1.83254 22.6362C1.49084 21.8766 1.25018 21.2832 1.05247 20.7121C0.844796 20.1126 0.666169 19.4744 0.520944 18.8154C0.329454 17.946 0.202693 17.2242 0.121989 16.5438C0.100413 16.3614 0.0904546 16.1843 0.0871352 16.0111L0 16.0101L0.0433601 14.9006C0.0504139 14.7198 0.0535259 14.5381 0.0568453 14.3458C0.064729 13.8906 0.0728201 13.4201 0.135267 12.9343C0.243356 12.0956 0.389204 11.1996 0.722807 10.3293C0.789195 10.1561 0.852472 9.98223 0.919276 9.79826C1.08463 9.34368 1.25558 8.87353 1.47922 8.40742C1.75909 7.82432 2.11199 7.22504 2.52816 6.62636C2.91675 6.06756 3.39122 5.41484 3.96486 4.81171C4.55904 4.18713 5.21877 3.62488 5.84324 3.1104C6.2478 2.77706 6.71376 2.45769 7.31002 2.10532C7.83615 1.79424 8.3602 1.52992 8.86787 1.31943C9.57532 1.02617 10.3015 0.773782 10.9809 0.544674C11.389 0.407047 11.7939 0.328317 12.1367 0.269421C13.5696 0.0229066 14.752 -0.0517762 15.8576 0.034443C16.5154 0.0858506 17.2611 0.143937 17.9915 0.295934C18.7886 0.461896 19.5687 0.683313 20.31 0.954114C21.4174 1.3587 22.5064 1.92115 23.5466 2.62608C24.7729 3.4571 25.8306 4.42413 26.6903 5.50005C27.1887 6.12362 27.6048 6.78666 28.0075 7.42784C28.0534 7.5009 28.0992 7.57376 28.1451 7.64662C28.5747 8.32869 28.8583 9.0409 29.1009 9.7092C29.3857 10.4943 29.6058 11.2943 29.7737 12.1547C30.0981 13.8176 30.0139 15.428 29.8886 16.7842C29.8174 17.5551 29.6345 18.2878 29.4577 18.9964C29.4183 19.1545 29.3774 19.3178 29.3394 19.4763C29.215 19.9938 29.0484 20.5417 28.8152 21.2004C28.6791 21.585 28.5175 21.9444 28.361 22.2921C28.322 22.379 28.283 22.4658 28.2444 22.5528C28.0888 22.9042 27.9281 23.2675 27.7413 23.6289C27.4287 24.2337 27.1768 24.6966 26.9243 25.1297C26.6053 25.6774 26.3034 26.1623 26.0015 26.6124C25.6619 27.1186 25.2557 27.7126 24.8173 28.2787C24.3097 28.9345 23.7642 29.6293 23.1705 30.2834C22.4414 31.0867 21.5716 32.027 20.6485 32.9097C19.7818 33.7384 18.8841 34.5136 17.8032 35.4224C17.2135 35.918 16.5916 36.343 16.0609 36.6936C15.7515 36.8978 15.3916 37 15.0277 37ZM2.32734 16.2949C2.39974 16.9045 2.51551 17.561 2.69144 18.3609C2.81882 18.9395 2.97504 19.4975 3.15574 20.0191C3.33188 20.5279 3.55076 21.0665 3.86548 21.7657C4.1661 22.4338 4.44099 23.0325 4.76111 23.5953C5.24222 24.4409 5.70383 25.1817 6.17249 25.8597C6.73887 26.6792 7.27475 27.3829 7.81104 28.0113C8.66103 29.0073 9.46329 29.8853 10.2643 30.6953C10.9965 31.4356 11.8008 32.1555 12.5786 32.8516L12.7811 33.0327C13.2016 33.4094 13.6522 33.7583 14.1292 34.1279L14.1931 34.1774C14.5014 34.4163 14.7663 34.6077 15.013 34.7694C15.4428 34.4818 15.9183 34.1481 16.354 33.7818C17.4028 32.8999 18.2702 32.1513 19.095 31.3628C19.9687 30.5277 20.8054 29.6228 21.5087 28.8478C22.0498 28.2518 22.5649 27.595 23.0462 26.9733C23.4437 26.4598 23.8091 25.9263 24.1443 25.4264C24.4207 25.0145 24.6987 24.5674 24.9947 24.0594C25.2283 23.6587 25.464 23.2252 25.7594 22.6536C25.9165 22.3496 26.0576 22.0313 26.2067 21.6941C26.2468 21.6034 26.2876 21.5127 26.3283 21.4221C26.4733 21.0994 26.6102 20.7948 26.7171 20.4929C26.925 19.9055 27.0716 19.4253 27.1783 18.9812C27.2185 18.8138 27.2604 18.6458 27.3009 18.4835C27.4658 17.8231 27.6214 17.1993 27.6779 16.5895C27.7893 15.3827 27.8664 13.9599 27.5932 12.5591C27.4467 11.8078 27.2555 11.1118 27.0084 10.4315C26.8065 9.87557 26.5756 9.29066 26.254 8.78022C26.2076 8.70635 26.1611 8.63248 26.1146 8.5586C25.7271 7.94131 25.3611 7.35842 24.9397 6.83118C24.2176 5.9273 23.3228 5.11085 22.2803 4.4043C21.3915 3.80198 20.4668 3.32332 19.532 2.98209C18.8928 2.74873 18.2187 2.55747 17.5283 2.41377C16.9397 2.29112 16.2997 2.24133 15.6808 2.19296C14.7684 2.12172 13.7647 2.1881 12.5224 2.40183C12.2655 2.44595 11.968 2.50302 11.7066 2.59127C11.0647 2.80783 10.3817 3.04503 9.73611 3.31259C9.32554 3.48281 8.8965 3.69957 8.46082 3.95721C7.96623 4.24967 7.58968 4.5063 7.27579 4.76476C6.70484 5.23512 6.10589 5.74494 5.59221 6.28473C5.11981 6.78119 4.70696 7.35052 4.36547 7.84173C4.01465 8.34629 3.72005 8.8456 3.48956 9.32567C3.31155 9.69666 3.1657 10.0976 3.01135 10.5222C2.94434 10.7066 2.87484 10.8975 2.80202 11.0879C2.5624 11.7129 2.4431 12.386 2.33771 13.2043C2.30991 13.4195 2.29622 13.6425 2.28792 13.8734L2.3234 13.8738V14.9427C2.3234 15.1105 2.31862 15.2736 2.31406 15.4314C2.30493 15.7425 2.29643 16.0364 2.32713 16.2949H2.32734ZM14.9945 20.4915C13.4022 20.4915 11.9072 19.8928 10.7811 18.8035C10.2278 18.2684 9.79275 17.6434 9.48777 16.9457C9.17326 16.2262 9.01226 15.463 9.00957 14.6771C9.00397 13.0879 9.62262 11.6038 10.7516 10.4979C11.8749 9.39772 13.3887 8.79115 15.014 8.78994H15.0184C16.6478 8.78994 18.1654 9.39975 19.2921 10.5076C20.4083 11.6052 21.0247 13.0728 21.0276 14.6401C21.029 15.4286 20.8714 16.1947 20.5591 16.9168C20.2573 17.6149 19.8249 18.2415 19.2737 18.779C18.1415 19.8835 16.6345 20.4915 15.0296 20.4915C15.0271 20.4915 15.0244 20.4915 15.0219 20.4915C15.0128 20.4915 15.0036 20.4915 14.9945 20.4915ZM15.0184 10.9553H15.0157C13.9844 10.9559 13.0288 11.3362 12.3246 12.0258C11.6149 12.721 11.2259 13.6599 11.2294 14.6694C11.233 15.6516 11.6288 16.5735 12.3439 17.2655C13.0512 17.9496 13.9918 18.3257 14.9947 18.3257C15.0014 18.3257 15.008 18.3257 15.0146 18.3257H15.0223C15.0246 18.3257 15.0271 18.3257 15.0294 18.3257C16.0416 18.3257 16.9911 17.9429 17.704 17.2475C18.4175 16.5515 18.8094 15.6268 18.8075 14.6437C18.8038 12.5751 17.1393 10.9553 15.0182 10.9553H15.0184Z" fill="black"/>
</svg>
