<svg width="31" height="34" viewBox="0 0 31 34" fill="none" xmlns="http://www.w3.org/2000/svg">
<rect x="0.5" y="0.5" width="29.4828" height="33" stroke="none"/>
<path d="M25.6038 20.0403C25.3995 19.3265 24.9859 18.767 24.6141 18.2986L24.5534 18.2221C24.182 17.7547 23.8312 17.3132 23.5648 16.8353C23.062 15.9334 22.7628 14.8767 22.6501 13.6047C22.6066 13.114 22.5891 12.6245 22.5707 12.1062C22.5649 11.9438 22.5589 11.7759 22.5521 11.6098C22.4914 10.13 22.0016 8.77706 21.0964 7.5884C20.6924 7.05791 20.2428 6.60409 19.7602 6.23944C19.2969 5.88953 18.8087 5.60013 18.3021 5.37393C18.3021 5.37393 15.3401 3.76266 11.9094 5.4856L11.9141 5.49859C11.5676 5.65399 11.227 5.85975 10.8446 6.14488C9.75738 6.95542 8.95037 7.9749 8.44595 9.1748C8.11058 9.97252 7.93211 10.7818 7.91556 11.5802L7.91394 11.6603C7.89707 12.4811 7.88101 13.2567 7.77571 14.0262C7.6438 14.9893 7.41471 15.8011 7.07546 16.5079C6.81424 17.052 6.45389 17.5464 5.99328 18.1216C5.62644 18.5795 5.17426 19.1442 4.91515 19.8589C4.82024 20.0244 4.77286 20.2095 4.77887 20.3968C4.77059 20.4781 4.75956 20.5633 4.74788 20.653C4.71867 20.8768 4.68558 21.1304 4.69012 21.3994C4.70018 21.9779 4.9244 22.5015 5.32174 22.8738C5.71016 23.2378 6.24703 23.4399 6.83355 23.4433C6.92781 23.4437 7.02191 23.4444 7.11618 23.445C7.37999 23.4466 7.65256 23.4483 7.92238 23.4483H7.9326C9.29676 23.4482 10.6608 23.4475 12.0249 23.4471C13.037 23.4466 14.0489 23.4463 15.0609 23.4459C15.6216 23.4459 16.1823 23.4459 16.743 23.4459C17.453 23.4461 18.163 23.4463 18.8728 23.4459C20.2798 23.4452 21.8007 23.4436 23.6589 23.441C24.1562 23.4404 24.6071 23.2994 24.9629 23.0335C25.3229 22.7643 25.5791 22.3724 25.7039 21.9002C25.8867 21.208 25.7558 20.5717 25.6038 20.0403ZM24.0227 21.4772C23.9677 21.6856 23.8854 21.746 23.6565 21.7463C21.7986 21.7488 20.2782 21.7504 18.8717 21.7512C18.1622 21.7515 17.4527 21.7514 16.7434 21.7512C16.1823 21.751 15.6213 21.7509 15.0602 21.7512C14.0481 21.7515 13.036 21.7518 12.024 21.7523C10.66 21.7529 9.29595 21.7534 7.93195 21.7536C7.66506 21.7534 7.39135 21.7518 7.12705 21.7502C7.0323 21.7496 6.93771 21.749 6.84296 21.7485C6.47872 21.7466 6.42858 21.5457 6.4255 21.371C6.4229 21.224 6.44562 21.0509 6.46947 20.8675C6.48293 20.7642 6.49689 20.6576 6.50776 20.5462C6.51603 20.5263 6.5235 20.506 6.53047 20.4852C6.67617 20.0406 6.96643 19.6579 7.36052 19.1657C7.82195 18.5896 8.29717 17.9562 8.64697 17.2274C9.06264 16.3617 9.34024 15.388 9.496 14.251C9.61428 13.3866 9.63212 12.5264 9.64916 11.6947L9.65078 11.6147C9.66295 11.0264 9.79778 10.4221 10.0515 9.81855C10.4429 8.88762 11.0467 8.12665 11.8979 7.49225C12.1815 7.28078 12.4213 7.13489 12.6525 7.03272C12.8564 6.94259 13.0703 6.85373 13.2901 6.7674C13.2877 6.76534 13.2854 6.76312 13.283 6.76106C14.0927 6.49178 15.4308 6.21568 16.8561 6.6326C16.8548 6.63387 16.8535 6.63513 16.8522 6.6364C16.9035 6.66175 16.9598 6.68471 17.0218 6.70404C17.6059 6.88652 18.1697 7.18131 18.6974 7.58016C19.055 7.85024 19.3933 8.19334 19.7029 8.59996C20.4054 9.5225 20.7698 10.5293 20.817 11.6777C20.8237 11.8395 20.8295 12.005 20.8352 12.1653C20.8537 12.6822 20.8727 13.2168 20.9201 13.7509C21.0539 15.2605 21.4199 16.5345 22.0395 17.6457C22.3731 18.244 22.7839 18.7612 23.1813 19.2611L23.2415 19.337C23.5872 19.7726 23.8233 20.1185 23.9313 20.4963C24.0606 20.9482 24.0874 21.2323 24.0227 21.4772Z" fill="white"/>
<path d="M16.2917 25.9131C15.9864 26.1609 15.6141 26.2865 15.2395 26.2865C14.9261 26.2865 14.6111 26.1985 14.3327 26.0206C13.7527 25.65 13.5056 25.0131 13.4964 24.6209H11.7241C11.7284 25.1053 11.8551 25.6238 12.0898 26.1063C12.3914 26.7264 12.8475 27.2437 13.4087 27.6023C13.9698 27.9609 14.605 28.1381 15.2378 28.138C15.9987 28.138 16.7566 27.8819 17.378 27.3772C17.8208 27.0176 18.1637 26.5864 18.3969 26.0956C18.6087 25.65 18.73 25.1543 18.7586 24.6207H16.9818C16.9308 25.1599 16.7087 25.5741 16.2913 25.9128L16.2917 25.9131Z" fill="white"/>
</svg>
