<svg width="15" height="17" viewBox="0 0 15 17" fill="white" xmlns="http://www.w3.org/2000/svg">
<path d="M14.3813 10.304C14.3806 9.62588 14.3801 8.94753 14.3801 8.26941L14.3798 6.16928C14.3801 4.48397 14.3801 2.79867 14.3798 1.1136C14.3798 0.418691 13.9296 0.00317154 13.1756 0.00225174C11.1696 -0.000572922 9.13152 -0.000112436 7.15174 0.000334875L6.80608 0.000412323C6.57121 0.000458271 6.33636 0.000513381 6.10153 0.000568488C5.16109 0.00078917 4.22085 0.00100981 3.28029 0.000641804C2.57306 0.000411854 1.86608 0.000412346 1.15909 0.0011022C0.465911 0.00202199 0.000174234 0.432488 0.000174234 1.0729V4.72703C-7.21869e-05 8.25331 -0.000318567 11.8996 0.00140638 15.4857C0.0016528 15.8214 0.165523 16.1169 0.450879 16.2963C0.724899 16.4683 1.06299 16.4982 1.37915 16.3786C1.55016 16.314 1.79461 16.0886 1.88653 16.0038C2.67113 15.2803 3.46436 14.5381 4.23123 13.8202C4.79356 13.2936 5.37536 12.7493 5.95026 12.2153C6.27125 11.9174 6.63505 11.5798 7.19074 11.5798H7.20381C7.75483 11.5848 8.11799 11.924 8.43849 12.2233C9.12707 12.8665 9.82569 13.5211 10.504 14.1567L10.6251 14.2702C10.7198 14.3589 10.8145 14.4476 10.9093 14.5364C11.3872 14.9842 11.8653 15.432 12.3437 15.8794C12.4821 16.0091 12.6068 16.124 12.7296 16.2181C13.08 16.4869 13.4033 16.5271 13.8104 16.3526C14.1985 16.1861 14.3727 15.93 14.3749 15.522C14.3845 13.7836 14.383 12.0146 14.3813 10.304Z" fill="white"/>
</svg>
