<svg width="23" height="25" viewBox="0 0 23 25" fill="none" xmlns="http://www.w3.org/2000/svg">
<path d="M18.7493 24.0816C19.2516 24.0816 19.7644 23.9775 20.273 23.7675C21.5559 23.2378 22.2962 22.201 22.3037 20.923C22.3153 18.8817 22.3135 16.808 22.3114 14.8025C22.3106 14.0092 22.31 13.216 22.31 12.4228V9.96449C22.31 7.99178 22.31 6.01907 22.31 4.04636C22.31 3.0981 21.9323 2.23838 21.2475 1.62549C20.5631 1.01288 19.6019 0.674805 18.541 0.673459C15.9571 0.670229 13.3306 0.670767 10.7905 0.671305C9.36153 0.671574 7.9329 0.672113 6.50398 0.671575C5.64297 0.671575 4.78196 0.671036 3.92095 0.672113C1.80364 0.674266 0.206587 2.10461 0.206587 3.99926C0.206587 5.42503 0.206587 6.85079 0.206587 8.27629C0.206287 12.4042 0.205686 16.6726 0.208084 20.8708C0.208683 21.9488 0.793981 22.9458 1.77367 23.5382C2.73957 24.122 3.9677 24.2335 5.05857 23.8356C5.6181 23.6319 6.06583 23.2739 6.42996 22.9506C7.39046 22.0984 8.35786 21.2266 9.2938 20.3836C9.93693 19.8041 10.6007 19.206 11.258 18.6184C12.1073 19.3823 12.9674 20.158 13.8005 20.9095C14.4976 21.538 15.1944 22.1668 15.8921 22.7948C16.0968 22.9789 16.2997 23.1584 16.5295 23.3283C17.2071 23.8286 17.9656 24.0816 18.7493 24.0816ZM20.0023 12.4228C20.0023 13.2165 20.0029 14.0106 20.0038 14.8043C20.0059 16.8067 20.0077 18.8773 19.996 20.9122C19.9933 21.3897 19.7815 21.6896 19.3095 21.8845C18.8144 22.0888 18.4212 22.0416 17.995 21.727C17.8458 21.6169 17.6941 21.4823 17.5257 21.3305C16.8286 20.7031 16.1321 20.0749 15.4357 19.4469C14.5648 18.6615 13.6642 17.8491 12.7768 17.0513C12.3869 16.7009 11.9452 16.3036 11.2748 16.2977C11.2697 16.2977 11.2643 16.2977 11.2589 16.2977C10.5828 16.2977 10.1407 16.6928 9.75023 17.0416C9.05105 17.6666 8.34348 18.3038 7.65959 18.9201C6.72695 19.7605 5.76225 20.6293 4.80803 21.4761C4.69625 21.5755 4.39895 21.8392 4.19097 21.9149C3.80647 22.0548 3.39529 22.0198 3.06204 21.8185C2.715 21.6086 2.5157 21.2627 2.5154 20.8697C2.5133 16.6721 2.5136 12.4039 2.5139 8.27629C2.5139 6.85052 2.5139 5.42476 2.5139 3.99899C2.5139 3.24937 3.08032 2.74549 3.92335 2.74441C4.78316 2.74361 5.64297 2.74361 6.50308 2.74387C7.93261 2.74441 9.36153 2.74388 10.7911 2.74361C13.33 2.74307 15.9556 2.74226 18.5374 2.74576C19.4545 2.74684 20.002 3.23322 20.002 4.04663C20.0023 6.01907 20.0023 7.99178 20.002 9.96449L20.0023 12.4228Z" fill="#7F7F7F"/>
</svg>
