<svg width="25" height="27" viewBox="0 0 25 27" fill="none" xmlns="http://www.w3.org/2000/svg">
<path d="M21.6496 21.3088C22.65 20.2208 23.4456 18.9775 24.017 17.6072C24.6693 16.0436 25 14.3837 25 12.6735C25 10.9632 24.6693 9.30332 24.017 7.73972C23.3873 6.23025 22.4864 4.87516 21.3388 3.71172C20.1913 2.54828 18.8548 1.63482 17.366 0.996399C15.824 0.335257 14.1868 0 12.5002 0C10.8136 0 9.17622 0.335257 7.63402 0.996633C6.14521 1.63505 4.80867 2.54851 3.66115 3.71196C2.51363 4.8754 1.61267 6.23048 0.982993 7.73996C0.330668 9.30355 0 10.9634 0 12.6737C0 14.3839 0.330668 16.0438 0.982993 17.6074C1.61267 19.1169 2.51363 20.472 3.66115 21.6354C4.80867 22.7989 6.14521 23.7123 7.63402 24.3507C9.17622 25.0121 10.8134 25.3474 12.5002 25.3474C14.1871 25.3474 15.8242 25.0121 17.3664 24.3507C17.9136 24.116 18.4405 23.844 18.9447 23.5362L21.8535 26.4853C22.192 26.8285 22.6354 27 23.0788 27C23.5223 27 23.9659 26.8285 24.3042 26.4853C24.9811 25.7991 24.9811 24.6865 24.3042 24.0003L21.6496 21.3088ZM12.5 21.8329C7.51872 21.8329 3.46589 17.7241 3.46589 12.6735C3.46589 7.62282 7.51849 3.51422 12.5 3.51422C17.4815 3.51422 21.5341 7.62305 21.5341 12.6735C21.5341 17.7239 17.4815 21.8329 12.5 21.8329Z" fill="black"/>
</svg>
