<svg width="29" height="29" viewBox="0 0 29 29" fill="none" xmlns="http://www.w3.org/2000/svg">
<path d="M11.8698 28.9999C11.3274 28.9999 10.9124 28.852 10.6032 28.5491C10.2488 28.2018 10.1486 27.7532 10.1009 27.4009C10.0174 26.7849 9.92523 26.1572 9.83591 25.5501C9.79913 25.2999 9.76236 25.0498 9.72612 24.7994C9.721 24.7646 9.71319 24.7225 9.70497 24.6781C9.69689 24.6343 9.688 24.5868 9.67991 24.5362C9.10038 24.2738 8.54348 23.956 8.0185 23.5881C7.74867 23.6946 7.47884 23.8009 7.20901 23.9073C6.52885 24.1754 5.82551 24.4527 5.13552 24.7274C4.68436 24.9071 4.28561 24.9362 3.91664 24.8165C3.54052 24.6945 3.23822 24.4334 2.99237 24.018L2.50848 23.2007C1.78467 21.9781 1.03621 20.714 0.303103 19.4683C0.211499 19.3126 0.158692 19.1651 0.116122 19.0465C0.102786 19.0093 0.0901228 18.9742 0.0790763 18.9467L0 18.7512L0.0214193 18.542C0.071263 18.0552 0.310917 17.6464 0.733915 17.3266C1.2178 16.9608 1.70856 16.5852 2.18329 16.2219C2.51414 15.9686 2.85416 15.7084 3.19336 15.4503C3.13126 14.8405 3.13126 14.2149 3.19336 13.5532C2.81132 13.2622 2.42806 12.9686 2.05531 12.683C1.64134 12.3658 1.21322 12.0378 0.791572 11.7171C0.531441 11.5192 0.17351 11.1974 0.069377 10.6884C-0.047823 10.1148 0.243022 9.6236 0.338533 9.46213C0.670061 8.90213 1.00132 8.342 1.33258 7.78173C1.87749 6.86014 2.44113 5.90712 2.99695 4.97027C3.47074 4.17188 4.24803 3.91509 5.12972 4.2659C5.56673 4.43972 6.01196 4.61578 6.44236 4.78606C6.95804 4.99 7.48881 5.19985 8.01513 5.40983C8.50481 5.06402 9.05781 4.75003 9.69258 4.45761C9.78634 3.79964 9.88535 3.13787 9.9814 2.49503C10.0167 2.2594 10.0519 2.02378 10.0869 1.78816C10.0932 1.74529 10.0993 1.70098 10.1056 1.65404C10.1208 1.54241 10.1379 1.41592 10.1638 1.28561C10.238 0.911531 10.4198 0.594384 10.6893 0.368489C10.9655 0.136941 11.3206 0.0112389 11.716 0.00492755C12.0856 -0.000989363 12.4571 6.25332e-05 12.8164 0.00111443C12.942 0.00150889 13.0675 0.00190335 13.1932 0.00190335C13.5875 0.00216633 13.9878 0.0034812 14.3748 0.00479607C15.2795 0.00782027 16.2151 0.0108445 17.1317 6.25332e-05C17.6755 -0.00624885 18.1135 0.1493 18.433 0.462634C18.7046 0.729027 18.8676 1.08746 18.9313 1.55871C19.0116 2.15264 19.1012 2.75814 19.1878 3.34365C19.2273 3.61057 19.2681 3.88656 19.3077 4.15874C19.3144 4.20554 19.3221 4.25341 19.3301 4.30416C19.3379 4.35386 19.3461 4.40567 19.3539 4.45918C19.9532 4.73754 20.5116 5.05666 21.0206 5.41181C21.337 5.28663 21.6536 5.16159 21.9702 5.03667C22.604 4.78645 23.2592 4.52769 23.9023 4.27155C24.8011 3.91351 25.5625 4.16597 26.0462 4.9825C26.9995 6.5923 27.876 8.07376 28.7256 9.51157C28.9693 9.92392 29.0492 10.3101 28.97 10.6919C28.8918 11.068 28.6682 11.3921 28.2863 11.6831C27.9668 11.9265 27.6475 12.1702 27.3283 12.4142C26.8402 12.7872 26.3377 13.171 25.8372 13.5505C25.8988 14.1595 25.8986 14.7847 25.8365 15.4461C26.2207 15.7387 26.606 16.0339 26.9808 16.3212C27.3973 16.6404 27.828 16.9704 28.2523 17.293C28.6456 17.5918 28.8761 17.9227 28.9568 18.3041C29.0393 18.6942 28.9572 19.0907 28.7055 19.5162C27.8415 20.9772 26.9401 22.5009 26.0262 24.0448C25.8023 24.4231 25.5043 24.6793 25.1403 24.8065C24.8843 24.896 24.4695 24.9596 23.9475 24.7541C23.0045 24.383 21.9968 23.9851 20.989 23.5794C20.4382 23.909 19.8781 24.2201 19.3415 24.5139C19.2511 25.1572 19.154 25.8041 19.0598 26.4321C19.021 26.6906 18.9822 26.9493 18.9438 27.2079C18.9378 27.2484 18.9324 27.2932 18.9266 27.3407C18.9145 27.4396 18.9009 27.5516 18.8766 27.6718C18.7073 28.5119 18.1106 28.9948 17.2399 28.9968C16.3644 28.9989 15.475 28.9982 14.6148 28.9976C14.3396 28.9974 14.0645 28.9972 13.7893 28.997C13.591 28.997 13.3911 28.9952 13.1979 28.9936C12.7712 28.9899 12.368 28.9865 11.9622 28.9986C11.9308 28.9995 11.8998 29.0001 11.8693 29.0001L11.8698 28.9999ZM8.11738 21.7701C8.37078 21.7701 8.61501 21.8532 8.82583 22.0115C9.38287 22.43 9.98652 22.778 10.6199 23.0458C10.7625 23.106 10.9721 23.2096 11.1469 23.4128C11.2749 23.5615 11.4277 23.8175 11.4279 24.1934C11.4279 24.2254 11.4426 24.3045 11.4545 24.368C11.465 24.4242 11.4767 24.4878 11.4867 24.5562C11.5228 24.8054 11.5594 25.0547 11.5961 25.3038C11.6859 25.9155 11.7789 26.548 11.8636 27.1733C11.8685 27.2089 11.8733 27.2391 11.8779 27.2643C11.8873 27.2643 11.8974 27.264 11.9082 27.2638C12.349 27.2506 12.7887 27.2543 13.214 27.258C13.4036 27.2596 13.5996 27.2613 13.7907 27.2614C14.066 27.2614 14.3414 27.2617 14.6167 27.2619C15.4456 27.2626 16.3018 27.2631 17.1451 27.2614C17.1508 27.2224 17.1561 27.1795 17.1615 27.1353C17.1683 27.0792 17.1753 27.0212 17.1846 26.9589C17.2231 26.6994 17.2621 26.44 17.301 26.1806C17.4072 25.4731 17.517 24.7413 17.616 24.0231C17.6987 23.4225 18.1353 23.1843 18.2788 23.1059C18.9029 22.7653 19.565 22.4007 20.1973 22.0173C20.6209 21.7604 21.0401 21.7217 21.479 21.8988C22.513 22.3162 23.5528 22.7271 24.5266 23.1104C25.4242 21.5938 26.3097 20.0972 27.1589 18.6611C26.7324 18.3369 26.3009 18.0062 25.8836 17.6864C25.4304 17.3391 24.9619 16.98 24.5001 16.6296C24.1503 16.3643 23.9863 15.9827 24.0379 15.5552C24.1285 14.8041 24.1282 14.1184 24.037 13.4591C23.9771 13.026 24.1405 12.639 24.4971 12.3692C25.0766 11.9309 25.6645 11.4818 26.2331 11.0475C26.5427 10.8111 26.8523 10.5745 27.1621 10.3385C26.328 8.92685 25.4676 7.47247 24.5335 5.89515C23.9013 6.14695 23.2591 6.40033 22.6378 6.64568C22.2353 6.80465 21.8327 6.96349 21.4304 7.12285C21.3105 7.17031 21.1469 7.22528 20.9449 7.22909C20.6831 7.23409 20.4307 7.15059 20.214 6.98794C19.6645 6.57534 19.0325 6.21335 18.3352 5.91198C17.7495 5.65887 17.6351 5.18328 17.6191 4.92228C17.6126 4.81722 17.5935 4.69625 17.5733 4.56819C17.5648 4.51467 17.5562 4.45931 17.5478 4.40225C17.5086 4.13231 17.4679 3.85737 17.4286 3.5915C17.3412 3.00073 17.2509 2.38997 17.1691 1.78553C17.1666 1.76672 17.1639 1.75002 17.1613 1.7353C17.1589 1.7353 17.1565 1.7353 17.1539 1.7353C16.2236 1.74621 15.281 1.74319 14.3694 1.74016C13.9836 1.73885 13.5846 1.73753 13.1928 1.7374C13.0658 1.7374 12.9389 1.73701 12.8118 1.73661C12.5083 1.73569 12.1959 1.73477 11.8892 1.73832C11.8822 1.78434 11.8757 1.8326 11.869 1.8823C11.8623 1.93227 11.8551 1.98407 11.8472 2.03745C11.812 2.27361 11.7767 2.50976 11.7414 2.74591C11.6311 3.48381 11.5169 4.2467 11.4119 4.99618C11.3703 5.29307 11.2133 5.69345 10.7018 5.91567C9.97278 6.23229 9.37573 6.57034 8.87635 6.94902C8.49175 7.24066 8.05016 7.29957 7.59914 7.11903C6.99226 6.87631 6.37339 6.63148 5.775 6.3948C5.35887 6.23031 4.92914 6.0603 4.50547 5.89187C3.96015 6.81096 3.40769 7.74531 2.87302 8.64954C2.54162 9.20994 2.21023 9.77047 1.87857 10.3307C1.87682 10.3338 1.87507 10.3367 1.87345 10.3394C1.87709 10.3422 1.88086 10.3452 1.88476 10.3481C2.30898 10.6706 2.73844 10.9997 3.15376 11.3179C3.60397 11.6628 4.0694 12.0196 4.52796 12.3677C4.87997 12.635 5.04539 13.0164 4.99366 13.4413C4.90246 14.1919 4.9026 14.8772 4.99407 15.5364C5.03677 15.8444 4.98949 16.2859 4.52136 16.6411C4.10739 16.9551 3.68709 17.2767 3.28066 17.5878C2.82156 17.9391 2.3475 18.302 1.87709 18.6579C2.59834 19.8835 3.33535 21.1282 4.04825 22.3324L4.5052 23.104C5.18482 22.8334 5.87536 22.5613 6.5434 22.298C6.89917 22.1579 7.25482 22.0176 7.61046 21.877C7.73641 21.8272 7.8916 21.7756 8.08734 21.7705C8.09744 21.7702 8.10768 21.7701 8.11778 21.7701H8.11738ZM14.5261 20.1357C14.4933 20.1357 14.4606 20.1355 14.4279 20.1349C12.8683 20.1102 11.4243 19.5045 10.3618 18.429C9.85113 17.9122 9.4505 17.311 9.1711 16.6422C8.88605 15.96 8.73975 15.2364 8.73625 14.4916V14.4828V14.474C8.74878 13.6897 8.91542 12.9343 9.23132 12.2288C9.53833 11.543 9.97264 10.9339 10.5221 10.4183C11.628 9.38048 13.0907 8.82837 14.6408 8.86439C17.8163 8.93763 20.2972 11.4143 20.2891 14.5027C20.285 16.045 19.6755 17.4763 18.5726 18.5326C18.0332 19.0494 17.4033 19.4513 16.7003 19.7273C16.0097 19.9986 15.2787 20.1359 14.5261 20.1359V20.1357ZM10.5145 14.4923C10.5293 16.6492 12.2593 18.3647 14.4567 18.3996C15.5454 18.4171 16.5647 18.0242 17.327 17.2938C18.0876 16.5653 18.5079 15.5725 18.5109 14.4981C18.5165 12.3626 16.7981 10.6501 14.5988 10.5995C13.5264 10.5748 12.5162 10.9548 11.7546 11.6694C10.9744 12.4017 10.5341 13.4037 10.5145 14.4923Z" fill="white"/>
</svg>
