<svg width="25" height="21" viewBox="0 0 25 21" fill="none" xmlns="http://www.w3.org/2000/svg">
<g clip-path="url(#clip0_193_2354)">
<path d="M24.8544 13.7748C24.8544 12.8451 24.8544 11.9154 24.8544 10.9856C24.8544 9.6819 24.8544 8.37734 24.8561 7.0736C24.8561 6.997 24.8535 6.92123 24.8502 6.84626C24.8502 6.84219 24.8502 6.83811 24.8502 6.83404C24.8485 6.12676 24.6199 5.48304 24.2282 4.9648C24.2274 4.96317 24.2257 4.96154 24.2249 4.95991C24.2139 4.94524 24.2022 4.93058 24.1904 4.91591C23.9652 4.62094 23.6861 4.37404 23.3592 4.1793C22.8532 3.86966 22.2481 3.68876 21.5892 3.68306C21.569 3.68306 21.5488 3.68306 21.5287 3.68306C21.4774 3.68143 21.4261 3.6798 21.374 3.6798C21.2084 3.6798 21.0437 3.6798 20.8781 3.6798C19.841 3.67654 18.8039 3.68143 17.7659 3.68143H17.2549C17.2549 3.13223 17.2557 2.62133 17.2549 2.10961C17.2549 2.09657 17.2532 2.08435 17.2532 2.07131C17.2532 2.06805 17.2532 2.06398 17.2532 2.06072C17.2532 2.03953 17.2507 2.01916 17.2498 1.99716C17.2482 1.9499 17.2473 1.90182 17.2431 1.85619C17.2313 1.70871 17.2078 1.56856 17.1734 1.43655C17.1717 1.43085 17.1708 1.42514 17.17 1.42026C17.1582 1.37788 17.1448 1.33714 17.1305 1.29559C17.1212 1.26625 17.112 1.23692 17.1019 1.2084C17.0994 1.20106 17.0952 1.19373 17.0927 1.1864C16.9086 0.715421 16.5691 0.374818 16.0959 0.183332C15.8152 0.0668098 15.4916 0.00325246 15.1268 0.00243762C14.3376 0.000807946 13.5476 -6.89173e-06 12.7584 0.000807946C11.9692 0.000807946 11.1791 0.000807946 10.3899 0.00243762C10.026 0.00325246 9.7016 0.0668098 9.42089 0.183332C8.9477 0.374818 8.60816 0.715421 8.42409 1.1864C8.42073 1.19373 8.41737 1.20106 8.41485 1.2084C8.40392 1.23692 8.39552 1.26625 8.38627 1.29559C8.37282 1.33633 8.35854 1.37707 8.34677 1.42026C8.34509 1.42596 8.34425 1.43166 8.34341 1.43655C8.30895 1.56856 8.28542 1.70871 8.27365 1.85619C8.26945 1.90182 8.26861 1.9499 8.26693 1.99716C8.26693 2.01835 8.2644 2.03872 8.26356 2.06072C8.26356 2.06398 8.26356 2.06805 8.26356 2.07131C8.26356 2.08435 8.26188 2.09657 8.26188 2.10961C8.2602 2.62051 8.26188 3.13223 8.26188 3.68143H7.75088C6.71374 3.68143 5.67661 3.67654 4.63863 3.6798C4.47306 3.6798 4.30833 3.6798 4.14276 3.6798C4.09065 3.6798 4.03938 3.68143 3.98811 3.68306C3.96794 3.68306 3.94777 3.68306 3.9276 3.68306C3.26783 3.68876 2.66353 3.86884 2.15757 4.1793C1.83147 4.37323 1.55244 4.62094 1.32635 4.91591C1.31458 4.93058 1.30366 4.94524 1.29189 4.95991C1.29105 4.96154 1.28937 4.96317 1.28853 4.9648C0.900234 5.48304 0.671627 6.12594 0.669946 6.83322C0.669946 6.8373 0.669946 6.84137 0.669946 6.84545C0.666584 6.92041 0.664062 6.99619 0.664062 7.07279C0.665743 8.37653 0.665743 9.68108 0.665743 10.9848C0.665743 11.9146 0.665743 12.8443 0.665743 13.774C0.665743 15.0965 0.666584 16.4198 0.670786 17.7423C0.670786 17.7439 0.670786 17.7447 0.670786 17.7463C0.670786 17.7879 0.670786 17.8286 0.670786 17.8702C0.671627 18.245 0.740545 18.606 0.864934 18.9401C0.908638 19.0819 0.96495 19.2188 1.04732 19.3394C1.41712 20.0181 2.0357 20.5486 2.78708 20.8101C3.11739 20.9315 3.46618 20.9918 3.83346 20.9927C5.22444 20.9943 6.61625 20.9959 8.00722 20.9975C9.59066 21 11.1749 21.0008 12.7584 21.0008H12.7601C14.3435 21.0008 15.9278 21 17.5112 20.9975C18.9022 20.9959 20.294 20.9943 21.685 20.9927C22.0514 20.9927 22.4011 20.9315 22.7314 20.8101C23.4827 20.5494 24.1013 20.0189 24.4711 19.3394C24.5535 19.2188 24.6098 19.0827 24.6535 18.9401C24.7787 18.606 24.8468 18.245 24.8477 17.8702C24.8477 17.8286 24.8477 17.7879 24.8477 17.7463C24.8477 17.7447 24.8477 17.7439 24.8477 17.7423C24.851 16.4198 24.8519 15.0965 24.8527 13.774L24.8544 13.7748ZM2.21472 6.1732C2.22229 6.14876 2.23237 6.12676 2.24078 6.10313C2.52318 5.41541 3.15857 5.04302 4.09905 5.03976C4.82437 5.03976 5.5497 5.03976 6.27418 5.03976C8.42241 5.03976 10.5698 5.03976 12.718 5.03976C12.7323 5.03976 12.7458 5.03976 12.7601 5.03976C12.7744 5.03976 12.7878 5.03976 12.8021 5.03976C14.9503 5.03976 17.0977 5.03976 19.2459 5.03976C19.9713 5.03976 20.6966 5.03976 21.4211 5.03976C22.3616 5.04221 22.9969 5.41541 23.2793 6.10313C23.2878 6.12676 23.2978 6.14876 23.3054 6.1732C23.339 6.27587 23.3676 6.38017 23.3928 6.48447C23.4247 6.64581 23.4441 6.81856 23.4458 7.00434C23.4491 7.34331 23.4508 7.6831 23.4458 8.02207C23.4458 8.07096 23.4416 8.11822 23.4374 8.16548C23.4054 8.34393 23.3617 8.52075 23.3062 8.69594C23.2869 8.75543 23.2642 8.81246 23.239 8.86787C23.0449 9.24025 22.723 9.52626 22.312 9.68678C22.0464 9.78131 21.743 9.82938 21.4101 9.82938C18.5265 9.82938 15.6437 9.82938 12.7601 9.82938C9.87642 9.82938 6.99362 9.82938 4.10998 9.82938C3.77715 9.82938 3.4729 9.78131 3.20816 9.68678C2.79633 9.52626 2.47443 9.24025 2.28112 8.86787C2.25591 8.81246 2.23321 8.75624 2.21388 8.69594C2.15841 8.52075 2.11471 8.34393 2.08277 8.16548C2.07857 8.11822 2.07521 8.07015 2.07437 8.02207C2.06932 7.6831 2.071 7.34331 2.07437 7.00434C2.07605 6.81774 2.09538 6.64581 2.12732 6.48447C2.15253 6.38017 2.18111 6.27669 2.21472 6.1732ZM9.77556 1.56693C9.8428 1.47974 9.94114 1.41863 10.0622 1.38766C10.0748 1.3844 10.0882 1.38114 10.1017 1.37951C10.1033 1.37951 10.105 1.37951 10.1059 1.3787C10.1462 1.37218 10.1899 1.36811 10.2353 1.36811C11.0716 1.36485 11.907 1.36322 12.7433 1.36322C12.7483 1.36322 12.7542 1.36322 12.7592 1.36322C12.7643 1.36322 12.7701 1.36322 12.7752 1.36322C13.6115 1.36322 14.4469 1.36485 15.2831 1.36811C15.3294 1.36811 15.3722 1.37218 15.4126 1.3787C15.4143 1.3787 15.4159 1.3787 15.4168 1.37951C15.4302 1.38196 15.4437 1.38522 15.4563 1.38766C15.5773 1.41863 15.6756 1.47974 15.7429 1.56693C15.7723 1.60522 15.7958 1.64922 15.8143 1.6973C15.8311 1.74538 15.8421 1.79671 15.8446 1.85293C15.8782 2.44451 15.8547 3.03852 15.8547 3.64232H9.6621C9.6621 3.03852 9.63857 2.44369 9.67219 1.85293C9.67555 1.79671 9.68563 1.74456 9.70244 1.6973C9.72093 1.64922 9.74447 1.60522 9.77388 1.56693H9.77556ZM4.13855 19.6343C3.52081 19.6343 3.03922 19.4893 2.69631 19.2082C2.60806 19.112 2.51561 19.0208 2.43325 18.9287C2.19707 18.6036 2.07521 18.1684 2.07437 17.6241C2.07437 17.5198 2.07437 17.4147 2.07437 17.3104C2.07773 17.1466 2.08361 16.9828 2.08445 16.8199C2.09622 14.9547 2.07857 13.0904 2.07184 11.2252C2.07184 11.1999 2.07184 11.1747 2.07184 11.1494C2.07184 11.05 2.07184 10.949 2.07184 10.8178C2.27524 10.8528 2.47611 10.8952 2.6753 10.9384C3.47038 11.2407 4.29152 11.1682 5.10005 11.1682C7.27938 11.169 9.45871 11.1706 11.6372 11.1714C12.0112 11.1714 12.3861 11.1714 12.7601 11.1714C13.1341 11.1714 13.5089 11.1714 13.8829 11.1714C16.0623 11.1714 18.2416 11.169 20.4201 11.1682C21.2286 11.1682 22.0497 11.2407 22.8448 10.9384C23.044 10.8952 23.2457 10.8528 23.4483 10.8178C23.4483 10.949 23.4483 11.05 23.4483 11.1494C23.4483 11.1747 23.4483 11.1999 23.4483 11.2252C23.4416 13.0904 23.4239 14.9547 23.4357 16.8199C23.4365 16.9828 23.4424 17.1466 23.4458 17.3104C23.4458 17.4147 23.4458 17.5198 23.4458 17.6241C23.4449 18.1684 23.3222 18.6036 23.0869 18.9287C23.0045 19.0208 22.9129 19.112 22.8238 19.2082C22.4809 19.4893 21.9993 19.6343 21.3816 19.6343C18.508 19.6343 15.6336 19.6343 12.7601 19.6351C9.88651 19.6351 7.01211 19.6351 4.13855 19.6343Z" fill="white"/>
<path d="M10.257 13.5418H10.252V14.8235H15.2679V13.5418H10.257Z" fill="white"/>
</g>
<defs>
<clipPath id="clip0_193_2354">
<rect width="24.192" height="21" fill="white" transform="translate(0.664062)"/>
</clipPath>
</defs>
</svg>
